<?xml version="1.0" encoding="utf-8"?>
<!-- Generator: Adobe Illustrator 22.0.1, SVG Export Plug-In . SVG Version: 6.00 Build 0)  -->
<svg version="1.1" id="Layer_1" xmlns="http://www.w3.org/2000/svg" xmlns:xlink="http://www.w3.org/1999/xlink" x="0px" y="0px"
	 viewBox="0 0 926 714" style="enable-background:new 0 0 926 714;" xml:space="preserve">
<style type="text/css">
	.st0{fill:#7ACFF5;}
	.st1{fill:#7ACFF5;fill-opacity:0;}
	.st2{fill:none;stroke:#000000;}
	.st3{fill:none;stroke:#000000;stroke-miterlimit:10;}
	.st4{font-family:'ArialMT';}
	.st5{font-size:12px;}
	.st6{fill:#7ACFF5;stroke:#000000;}
	.st7{fill:none;stroke:#000000;stroke-miterlimit:10;stroke-dasharray:3,3;}
	.st8{font-size:11px;}
</style>
<g>
	<ellipse pointer-events="none" class="st0" cx="24.5" cy="211.5" rx="9.5" ry="9.5"/>
	<rect x="0.5" y="201.5" pointer-events="none" class="st1" width="38" height="76"/>
	<ellipse pointer-events="none" class="st2" cx="24.5" cy="211.5" rx="9.5" ry="9.5"/>
	<path pointer-events="none" class="st3" d="M24.5,220.5v31.7"/>
	<path pointer-events="none" class="st3" d="M5.5,231.9h38"/>
	<path pointer-events="none" class="st3" d="M24.5,252.2l-19,25.3"/>
	<path pointer-events="none" class="st3" d="M24.5,252.2l19,25.3"/>
	<g>
		<text transform="matrix(1 0 0 1 5.6123 295)" class="st4 st5">Utente</text>
	</g>
	<ellipse pointer-events="none" class="st0" cx="348.5" cy="26.5" rx="7.5" ry="7.5"/>
	<rect x="333" y="19" pointer-events="none" class="st1" width="30" height="60"/>
	<ellipse pointer-events="none" class="st2" cx="348.5" cy="26.5" rx="7.5" ry="7.5"/>
	<path pointer-events="none" class="st3" d="M348,34v25"/>
	<path pointer-events="none" class="st3" d="M333,43h30"/>
	<path pointer-events="none" class="st3" d="M348,59l-15,20"/>
	<path pointer-events="none" class="st3" d="M348,59l15,20"/>
	<g>
		<text transform="matrix(1 0 0 1 290.7568 96.5)" class="st4 st5">Utente non registrato</text>
	</g>
	<path pointer-events="none" class="st3" d="M61.6,229.5h134c6.7,0,10-3.3,10-10v-160c0-6.7,3.3-10,10-10h117.2"/>
	<path pointer-events="none" class="st3" d="M49.6,229.5l12-6v12L49.6,229.5z"/>
	<ellipse pointer-events="none" class="st0" cx="348.5" cy="232.5" rx="7.5" ry="7.5"/>
	<rect x="333" y="224.5" pointer-events="none" class="st1" width="30" height="60"/>
	<ellipse pointer-events="none" class="st2" cx="348.5" cy="232.5" rx="7.5" ry="7.5"/>
	<path pointer-events="none" class="st3" d="M348,239.5v25"/>
	<path pointer-events="none" class="st3" d="M333,248.5h30"/>
	<path pointer-events="none" class="st3" d="M348,264.5l-15,20"/>
	<path pointer-events="none" class="st3" d="M348,264.5l15,20"/>
	<g>
		<text transform="matrix(1 0 0 1 302.4345 302)" class="st4 st5">Utente registrato</text>
	</g>
	<path pointer-events="none" class="st3" d="M61.6,248.1h138.3c6.7,0,13.3,0,20,0H333"/>
	<path pointer-events="none" class="st3" d="M49.6,248.1l12-6v12L49.6,248.1z"/>
	<ellipse pointer-events="none" class="st6" cx="537.5" cy="45.5" rx="52" ry="23"/>
	<g>
		<text transform="matrix(1 0 0 1 496.4296 41.29)" class="st4 st5">Autenticazione</text>
		<text transform="matrix(1 0 0 1 507.1054 55.29)" class="st4 st5">con codice</text>
	</g>
	<path pointer-events="none" class="st3" d="M363,49.5h25.5c6.7,0,13.3,0,20,0h67.1c6.7,0,10-0.7,10-2.1v-2.2"/>
	<ellipse pointer-events="none" class="st6" cx="537.5" cy="254.5" rx="52" ry="23"/>
	<g>
		<text transform="matrix(1 0 0 1 496.4296 250.29)" class="st4 st5">Autenticazione</text>
		<text transform="matrix(1 0 0 1 507.2812 264.29)" class="st4 st5">mail + psw</text>
	</g>
	<path pointer-events="none" class="st3" d="M363,254.5h122"/>
	<ellipse pointer-events="none" class="st6" cx="652.5" cy="151.5" rx="48.5" ry="20"/>
	<g>
		<text transform="matrix(1 0 0 1 611.9296 154.29)" class="st4 st5">Autenticazione</text>
	</g>
	<path pointer-events="none" class="st3" d="M590.9,150.9h-43.8c-6.7,0-10-3.3-10-10V68.5"/>
	<path pointer-events="none" class="st3" d="M602.9,150.9l-12,6v-12L602.9,150.9z"/>
	<path pointer-events="none" class="st3" d="M590.9,150.9h-43.8c-6.7,0-10,3.3-10,10v70.6"/>
	<path pointer-events="none" class="st3" d="M602.9,150.9l-12,6v-12L602.9,150.9z"/>
	<ellipse pointer-events="none" class="st6" cx="858.5" cy="155.5" rx="59.5" ry="23.5"/>
	<g>
		<text transform="matrix(1 0 0 1 818.372 157.79)" class="st4 st5">Effettua ordine</text>
	</g>
	<path pointer-events="none" class="st7" d="M799,150.9h-17.6c-6.7,0-13.3,0-20,0h-57.8"/>
	<path pointer-events="none" class="st3" d="M714.5,144.9l-12,6l12,6"/>
	<g>
		<text transform="matrix(1 0 0 1 723.627 141.93)" class="st4 st8">&lt;&lt;Include&gt;&gt;</text>
	</g>
	<ellipse pointer-events="none" class="st6" cx="858.5" cy="244.5" rx="40" ry="20"/>
	<g>
		<text transform="matrix(1 0 0 1 826.6015 247.29)" class="st4 st5">Pagamento</text>
	</g>
	<path pointer-events="none" class="st7" d="M858.5,178.5v12.4c0,6.7,0,13.3,0,20V223"/>
	<path pointer-events="none" class="st3" d="M852.5,212.1l6,12l6-12"/>
	<g>
		<text transform="matrix(1 0 0 1 861.417 204.36)" class="st4 st8">&lt;&lt;Include&gt;&gt;</text>
	</g>
	<ellipse pointer-events="none" class="st6" cx="766.5" cy="34.5" rx="61" ry="34"/>
	<g>
		<text transform="matrix(1 0 0 1 720.041 30.29)" class="st4 st5">Visualizza ordine</text>
		<text transform="matrix(1 0 0 1 709.5966 44.29)" class="st4 st5">tramite codice ordine</text>
	</g>
	<path pointer-events="none" class="st7" d="M591.2,35.2h23c6.7,0,13.3,0,20,0h71.3"/>
	<path pointer-events="none" class="st3" d="M602.1,29.2l-12,6l12,6"/>
	<g>
		<text transform="matrix(1 0 0 1 617.0993 26.21)" class="st4 st8">&lt;&lt;Extend&gt;&gt;</text>
	</g>
	<ellipse pointer-events="none" class="st6" cx="361.5" cy="392.5" rx="48" ry="20"/>
	<g>
		<text transform="matrix(1 0 0 1 332.8867 388.29)" class="st4 st5">Visualizza</text>
		<text transform="matrix(1 0 0 1 343.4482 402.29)" class="st4 st5">profilo</text>
	</g>
	<ellipse pointer-events="none" class="st6" cx="503.5" cy="393.5" rx="54" ry="20.5"/>
	<g>
		<text transform="matrix(1 0 0 1 479.4482 388.79)" class="st4 st5">Modifica</text>
		<text transform="matrix(1 0 0 1 473.7705 402.79)" class="st4 st5">anagrafica</text>
	</g>
	<ellipse pointer-events="none" class="st6" cx="631.5" cy="393.5" rx="54.5" ry="20"/>
	<g>
		<text transform="matrix(1 0 0 1 594.1035 389.29)" class="st4 st5">Verifica saldo</text>
		<text transform="matrix(1 0 0 1 588.7656 403.29)" class="st4 st5">punti LibroCard</text>
	</g>
	<ellipse pointer-events="none" class="st6" cx="768.5" cy="393.5" rx="58.5" ry="20"/>
	<g>
		<text transform="matrix(1 0 0 1 724.2753 389.29)" class="st4 st5">Inserire indirizzi </text>
		<text transform="matrix(1 0 0 1 732.5956 403.29)" class="st4 st5">di spedizione</text>
	</g>
	<path pointer-events="none" class="st7" d="M361.4,370.3v-32.2c0-6.7,3.3-10,10-10h155.7c6.7,0,10-3.3,10-10v-40.6"/>
	<path pointer-events="none" class="st3" d="M355.4,359.4l6,12l6-12"/>
	<g>
		<text transform="matrix(1 0 0 1 420.7393 321.07)" class="st4 st8">&lt;&lt;Extend&gt;&gt;</text>
	</g>
	<path pointer-events="none" class="st7" d="M502.8,370.3v-25.1c0-6.7,3.3-10,10-10h14.3c6.7,0,10-3.3,10-10v-47.7"/>
	<path pointer-events="none" class="st3" d="M496.8,359.4l6,12l6-12"/>
	<g>
		<text transform="matrix(1 0 0 1 506.5993 348.36)" class="st4 st8">&lt;&lt;Extend&gt;&gt;</text>
	</g>
	<path pointer-events="none" class="st7" d="M631.4,371.3v-30.3c0-6.7-3.3-10-10-10h-74.3c-6.7,0-10-3.3-10-10v-43.4"/>
	<path pointer-events="none" class="st3" d="M625.4,360.4l6,12l6-12"/>
	<g>
		<text transform="matrix(1 0 0 1 560.5993 323.93)" class="st4 st8">&lt;&lt;Extend&gt;&gt;</text>
	</g>
	<path pointer-events="none" class="st7" d="M759.9,371.3V265.2c0-6.7-3.3-10-10-10H588.5"/>
	<path pointer-events="none" class="st3" d="M753.9,360.4l6,12l6-12"/>
	<g>
		<text transform="matrix(1 0 0 1 667.7393 269.21)" class="st4 st8">&lt;&lt;Extend&gt;&gt;</text>
	</g>
	<ellipse pointer-events="none" class="st0" cx="348.5" cy="503.5" rx="7.5" ry="7.5"/>
	<rect x="333" y="496" pointer-events="none" class="st1" width="30" height="60"/>
	<ellipse pointer-events="none" class="st2" cx="348.5" cy="503.5" rx="7.5" ry="7.5"/>
	<path pointer-events="none" class="st3" d="M348,511v25"/>
	<path pointer-events="none" class="st3" d="M333,520h30"/>
	<path pointer-events="none" class="st3" d="M348,536l-15,20"/>
	<path pointer-events="none" class="st3" d="M348,536l15,20"/>
	<g>
		<text transform="matrix(1 0 0 1 293.4228 573.5)" class="st4 st5">Utente responsabile</text>
	</g>
	<path pointer-events="none" class="st3" d="M61.6,263.8h134c6.7,0,10,3.3,10,10v257.1c0,6.7,3.3,10,10,10h117.2"/>
	<path pointer-events="none" class="st3" d="M49.6,263.8l12-6v12L49.6,263.8z"/>
	<ellipse pointer-events="none" class="st6" cx="537.5" cy="536.5" rx="57" ry="20"/>
	<g>
		<text transform="matrix(1 0 0 1 496.4296 531.79)" class="st4 st5">Autenticazione</text>
		<text transform="matrix(1 0 0 1 507.2812 545.79)" class="st4 st5">mail + psw</text>
	</g>
	<path pointer-events="none" class="st3" d="M363,538.1h19.8c6.7,0,13.3,0,20,0H480"/>
	<ellipse pointer-events="none" class="st6" cx="751.5" cy="488.5" rx="49.5" ry="20.5"/>
	<g>
		<text transform="matrix(1 0 0 1 730.1142 483.79)" class="st4 st5">Verifica</text>
		<text transform="matrix(1 0 0 1 720.4404 497.79)" class="st4 st5">stato ordini</text>
	</g>
	<ellipse pointer-events="none" class="st6" cx="751.5" cy="556.5" rx="76.5" ry="32"/>
	<g>
		<text transform="matrix(1 0 0 1 697.7587 551.79)" class="st4 st5">Verifica saldo punti </text>
		<text transform="matrix(1 0 0 1 683.7578 565.79)" class="st4 st5">Librocard utenti registrati</text>
	</g>
	<ellipse pointer-events="none" class="st6" cx="537.5" cy="635.5" rx="57.5" ry="23.5"/>
	<g>
		<text transform="matrix(1 0 0 1 495.5966 630.79)" class="st4 st5">Aggiornamento</text>
		<text transform="matrix(1 0 0 1 500.6035 644.79)" class="st4 st5">libreria online</text>
	</g>
	<path pointer-events="none" class="st7" d="M537.1,513.8v-28.6c0-6.7,3.3-10,10-10h154.4"/>
	<path pointer-events="none" class="st3" d="M531.1,502.9l6,12l6-12"/>
	<g>
		<text transform="matrix(1 0 0 1 581.5293 468.21)" class="st4 st8">&lt;&lt;Extend&gt;&gt;</text>
	</g>
	<path pointer-events="none" class="st7" d="M596.2,536.6h28c6.7,0,10,3.3,10,10v5c0,3.3,3.3,5,10,5h30.3"/>
	<path pointer-events="none" class="st3" d="M607.1,530.6l-12,6l12,6"/>
	<g>
		<text transform="matrix(1 0 0 1 603.7393 530.43)" class="st4 st8">&lt;&lt;Extend&gt;&gt;</text>
	</g>
	<path pointer-events="none" class="st7" d="M537.1,611.5v-17.7c0-6.7,0-13.3,0-20v-14.9"/>
	<path pointer-events="none" class="st3" d="M543.1,569.8l-6-12l-6,12"/>
	<g>
		<text transform="matrix(1 0 0 1 464.987 588.79)" class="st4 st8">&lt;&lt;Include&gt;&gt;</text>
	</g>
	<ellipse pointer-events="none" class="st6" cx="751.5" cy="635.5" rx="56.5" ry="20.5"/>
	<g>
		<text transform="matrix(1 0 0 1 699.7656 637.79)" class="st4 st5">Aggiorna classifica</text>
	</g>
	<ellipse pointer-events="none" class="st6" cx="742.5" cy="690.5" rx="67.5" ry="20.5"/>
	<g>
		<text transform="matrix(1 0 0 1 687.1005 692.79)" class="st4 st5">Inserimento dati libri</text>
	</g>
	<path pointer-events="none" class="st7" d="M597.2,635.2h37c6.7,0,13.3,0,20,0h40"/>
	<path pointer-events="none" class="st3" d="M608.1,629.2l-12,6l12,6"/>
	<g>
		<text transform="matrix(1 0 0 1 619.9593 622.21)" class="st4 st8">&lt;&lt;Extend&gt;&gt;</text>
	</g>
	<path pointer-events="none" class="st7" d="M537.1,660.7v20.2c0,6.7,3.3,10,10,10h127.4"/>
	<path pointer-events="none" class="st3" d="M543.1,671.6l-6-12l-6,12"/>
	<g>
		<text transform="matrix(1 0 0 1 585.5993 684.93)" class="st4 st8">&lt;&lt;Extend&gt;&gt;</text>
	</g>
	<ellipse pointer-events="none" class="st6" cx="143.5" cy="372.5" rx="40" ry="20"/>
	<g>
		<text transform="matrix(1 0 0 1 115.3867 368.29)" class="st4 st5">Visualizza</text>
		<text transform="matrix(1 0 0 1 119.6054 382.29)" class="st4 st5">catalogo</text>
	</g>
	<path pointer-events="none" class="st3" d="M37.1,278.1h97.1c6.7,0,10,3.3,10,10v64.3"/>
	<path pointer-events="none" class="st3" d="M61.6,229.5h134c6.7,0,10-3.3,10-10v-160c0-6.7,3.3-10,10-10h117.2"/>
	<path pointer-events="none" class="st3" d="M49.6,229.5l12-6v12L49.6,229.5z"/>
	<path pointer-events="none" class="st3" d="M61.6,248.1h138.3c6.7,0,13.3,0,20,0H333"/>
	<path pointer-events="none" class="st3" d="M49.6,248.1l12-6v12L49.6,248.1z"/>
	<path pointer-events="none" class="st3" d="M61.6,263.8h134c6.7,0,10,3.3,10,10v257.1c0,6.7,3.3,10,10,10h117.2"/>
	<path pointer-events="none" class="st3" d="M49.6,263.8l12-6v12L49.6,263.8z"/>
	<path pointer-events="none" class="st3" d="M37.1,278.1h97.1c6.7,0,10,3.3,10,10v64.3"/>
	<path pointer-events="none" class="st3" d="M61.6,229.5h134c6.7,0,10-3.3,10-10v-160c0-6.7,3.3-10,10-10h117.2"/>
	<path pointer-events="none" class="st3" d="M49.6,229.5l12-6v12L49.6,229.5z"/>
	<path pointer-events="none" class="st3" d="M363,49.5h25.5c6.7,0,13.3,0,20,0h67.1c6.7,0,10-0.7,10-2.1v-2.2"/>
	<path pointer-events="none" class="st3" d="M61.6,248.1h138.3c6.7,0,13.3,0,20,0H333"/>
	<path pointer-events="none" class="st3" d="M49.6,248.1l12-6v12L49.6,248.1z"/>
	<path pointer-events="none" class="st3" d="M363,254.5h122"/>
	<path pointer-events="none" class="st3" d="M363,49.5h25.5c6.7,0,13.3,0,20,0h67.1c6.7,0,10-0.7,10-2.1v-2.2"/>
	<path pointer-events="none" class="st3" d="M590.9,150.9h-43.8c-6.7,0-10-3.3-10-10V68.5"/>
	<path pointer-events="none" class="st3" d="M602.9,150.9l-12,6v-12L602.9,150.9z"/>
	<path pointer-events="none" class="st7" d="M591.2,35.2h23c6.7,0,13.3,0,20,0h71.3"/>
	<path pointer-events="none" class="st3" d="M602.1,29.2l-12,6l12,6"/>
	<g>
		<text transform="matrix(1 0 0 1 617.0993 26.21)" class="st4 st8">&lt;&lt;Extend&gt;&gt;</text>
	</g>
	<path pointer-events="none" class="st3" d="M363,254.5h122"/>
	<path pointer-events="none" class="st3" d="M590.9,150.9h-43.8c-6.7,0-10,3.3-10,10v70.6"/>
	<path pointer-events="none" class="st3" d="M602.9,150.9l-12,6v-12L602.9,150.9z"/>
	<path pointer-events="none" class="st7" d="M361.4,370.3v-32.2c0-6.7,3.3-10,10-10h155.7c6.7,0,10-3.3,10-10v-40.6"/>
	<path pointer-events="none" class="st3" d="M355.4,359.4l6,12l6-12"/>
	<g>
		<text transform="matrix(1 0 0 1 420.7393 321.07)" class="st4 st8">&lt;&lt;Extend&gt;&gt;</text>
	</g>
	<path pointer-events="none" class="st7" d="M502.8,370.3v-25.1c0-6.7,3.3-10,10-10h14.3c6.7,0,10-3.3,10-10v-47.7"/>
	<path pointer-events="none" class="st3" d="M496.8,359.4l6,12l6-12"/>
	<g>
		<text transform="matrix(1 0 0 1 506.5993 348.36)" class="st4 st8">&lt;&lt;Extend&gt;&gt;</text>
	</g>
	<path pointer-events="none" class="st7" d="M631.4,371.3v-30.3c0-6.7-3.3-10-10-10h-74.3c-6.7,0-10-3.3-10-10v-43.4"/>
	<path pointer-events="none" class="st3" d="M625.4,360.4l6,12l6-12"/>
	<g>
		<text transform="matrix(1 0 0 1 560.5993 323.93)" class="st4 st8">&lt;&lt;Extend&gt;&gt;</text>
	</g>
	<path pointer-events="none" class="st7" d="M759.9,371.3V265.2c0-6.7-3.3-10-10-10H588.5"/>
	<path pointer-events="none" class="st3" d="M753.9,360.4l6,12l6-12"/>
	<g>
		<text transform="matrix(1 0 0 1 667.7393 269.21)" class="st4 st8">&lt;&lt;Extend&gt;&gt;</text>
	</g>
	<path pointer-events="none" class="st3" d="M590.9,150.9h-43.8c-6.7,0-10-3.3-10-10V68.5"/>
	<path pointer-events="none" class="st3" d="M602.9,150.9l-12,6v-12L602.9,150.9z"/>
	<path pointer-events="none" class="st3" d="M590.9,150.9h-43.8c-6.7,0-10,3.3-10,10v70.6"/>
	<path pointer-events="none" class="st3" d="M602.9,150.9l-12,6v-12L602.9,150.9z"/>
	<path pointer-events="none" class="st7" d="M799,150.9h-17.6c-6.7,0-13.3,0-20,0h-57.8"/>
	<path pointer-events="none" class="st3" d="M714.5,144.9l-12,6l12,6"/>
	<g>
		<text transform="matrix(1 0 0 1 723.627 141.93)" class="st4 st8">&lt;&lt;Include&gt;&gt;</text>
	</g>
	<path pointer-events="none" class="st7" d="M799,150.9h-17.6c-6.7,0-13.3,0-20,0h-57.8"/>
	<path pointer-events="none" class="st3" d="M714.5,144.9l-12,6l12,6"/>
	<g>
		<text transform="matrix(1 0 0 1 723.627 141.93)" class="st4 st8">&lt;&lt;Include&gt;&gt;</text>
	</g>
	<path pointer-events="none" class="st7" d="M858.5,178.5v12.4c0,6.7,0,13.3,0,20V223"/>
	<path pointer-events="none" class="st3" d="M852.5,212.1l6,12l6-12"/>
	<g>
		<text transform="matrix(1 0 0 1 861.417 204.36)" class="st4 st8">&lt;&lt;Include&gt;&gt;</text>
	</g>
	<path pointer-events="none" class="st7" d="M858.5,178.5v12.4c0,6.7,0,13.3,0,20V223"/>
	<path pointer-events="none" class="st3" d="M852.5,212.1l6,12l6-12"/>
	<g>
		<text transform="matrix(1 0 0 1 861.417 204.36)" class="st4 st8">&lt;&lt;Include&gt;&gt;</text>
	</g>
	<path pointer-events="none" class="st7" d="M591.2,35.2h23c6.7,0,13.3,0,20,0h71.3"/>
	<path pointer-events="none" class="st3" d="M602.1,29.2l-12,6l12,6"/>
	<g>
		<text transform="matrix(1 0 0 1 617.0993 26.21)" class="st4 st8">&lt;&lt;Extend&gt;&gt;</text>
	</g>
	<path pointer-events="none" class="st7" d="M361.4,370.3v-32.2c0-6.7,3.3-10,10-10h155.7c6.7,0,10-3.3,10-10v-40.6"/>
	<path pointer-events="none" class="st3" d="M355.4,359.4l6,12l6-12"/>
	<g>
		<text transform="matrix(1 0 0 1 420.7393 321.07)" class="st4 st8">&lt;&lt;Extend&gt;&gt;</text>
	</g>
	<path pointer-events="none" class="st7" d="M502.8,370.3v-25.1c0-6.7,3.3-10,10-10h14.3c6.7,0,10-3.3,10-10v-47.7"/>
	<path pointer-events="none" class="st3" d="M496.8,359.4l6,12l6-12"/>
	<g>
		<text transform="matrix(1 0 0 1 506.5993 348.36)" class="st4 st8">&lt;&lt;Extend&gt;&gt;</text>
	</g>
	<path pointer-events="none" class="st7" d="M631.4,371.3v-30.3c0-6.7-3.3-10-10-10h-74.3c-6.7,0-10-3.3-10-10v-43.4"/>
	<path pointer-events="none" class="st3" d="M625.4,360.4l6,12l6-12"/>
	<g>
		<text transform="matrix(1 0 0 1 560.5993 323.93)" class="st4 st8">&lt;&lt;Extend&gt;&gt;</text>
	</g>
	<path pointer-events="none" class="st7" d="M759.9,371.3V265.2c0-6.7-3.3-10-10-10H588.5"/>
	<path pointer-events="none" class="st3" d="M753.9,360.4l6,12l6-12"/>
	<g>
		<text transform="matrix(1 0 0 1 667.7393 269.21)" class="st4 st8">&lt;&lt;Extend&gt;&gt;</text>
	</g>
	<path pointer-events="none" class="st3" d="M61.6,263.8h134c6.7,0,10,3.3,10,10v257.1c0,6.7,3.3,10,10,10h117.2"/>
	<path pointer-events="none" class="st3" d="M49.6,263.8l12-6v12L49.6,263.8z"/>
	<path pointer-events="none" class="st3" d="M363,538.1h19.8c6.7,0,13.3,0,20,0H480"/>
	<path pointer-events="none" class="st3" d="M363,538.1h19.8c6.7,0,13.3,0,20,0H480"/>
	<path pointer-events="none" class="st7" d="M537.1,513.8v-28.6c0-6.7,3.3-10,10-10h154.4"/>
	<path pointer-events="none" class="st3" d="M531.1,502.9l6,12l6-12"/>
	<g>
		<text transform="matrix(1 0 0 1 581.5293 468.21)" class="st4 st8">&lt;&lt;Extend&gt;&gt;</text>
	</g>
	<path pointer-events="none" class="st7" d="M596.2,536.6h28c6.7,0,10,3.3,10,10v5c0,3.3,3.3,5,10,5h30.3"/>
	<path pointer-events="none" class="st3" d="M607.1,530.6l-12,6l12,6"/>
	<g>
		<text transform="matrix(1 0 0 1 603.7393 530.43)" class="st4 st8">&lt;&lt;Extend&gt;&gt;</text>
	</g>
	<path pointer-events="none" class="st7" d="M537.1,611.5v-17.7c0-6.7,0-13.3,0-20v-14.9"/>
	<path pointer-events="none" class="st3" d="M543.1,569.8l-6-12l-6,12"/>
	<g>
		<text transform="matrix(1 0 0 1 464.987 588.79)" class="st4 st8">&lt;&lt;Include&gt;&gt;</text>
	</g>
	<path pointer-events="none" class="st7" d="M537.1,513.8v-28.6c0-6.7,3.3-10,10-10h154.4"/>
	<path pointer-events="none" class="st3" d="M531.1,502.9l6,12l6-12"/>
	<g>
		<text transform="matrix(1 0 0 1 581.5293 468.21)" class="st4 st8">&lt;&lt;Extend&gt;&gt;</text>
	</g>
	<path pointer-events="none" class="st7" d="M596.2,536.6h28c6.7,0,10,3.3,10,10v5c0,3.3,3.3,5,10,5h30.3"/>
	<path pointer-events="none" class="st3" d="M607.1,530.6l-12,6l12,6"/>
	<g>
		<text transform="matrix(1 0 0 1 603.7393 530.43)" class="st4 st8">&lt;&lt;Extend&gt;&gt;</text>
	</g>
	<path pointer-events="none" class="st7" d="M537.1,611.5v-17.7c0-6.7,0-13.3,0-20v-14.9"/>
	<path pointer-events="none" class="st3" d="M543.1,569.8l-6-12l-6,12"/>
	<g>
		<text transform="matrix(1 0 0 1 464.987 588.79)" class="st4 st8">&lt;&lt;Include&gt;&gt;</text>
	</g>
	<path pointer-events="none" class="st7" d="M597.2,635.2h37c6.7,0,13.3,0,20,0h40"/>
	<path pointer-events="none" class="st3" d="M608.1,629.2l-12,6l12,6"/>
	<g>
		<text transform="matrix(1 0 0 1 619.9593 622.21)" class="st4 st8">&lt;&lt;Extend&gt;&gt;</text>
	</g>
	<path pointer-events="none" class="st7" d="M537.1,660.7v20.2c0,6.7,3.3,10,10,10h127.4"/>
	<path pointer-events="none" class="st3" d="M543.1,671.6l-6-12l-6,12"/>
	<g>
		<text transform="matrix(1 0 0 1 585.5993 684.93)" class="st4 st8">&lt;&lt;Extend&gt;&gt;</text>
	</g>
	<path pointer-events="none" class="st7" d="M597.2,635.2h37c6.7,0,13.3,0,20,0h40"/>
	<path pointer-events="none" class="st3" d="M608.1,629.2l-12,6l12,6"/>
	<g>
		<text transform="matrix(1 0 0 1 619.9593 622.21)" class="st4 st8">&lt;&lt;Extend&gt;&gt;</text>
	</g>
	<path pointer-events="none" class="st7" d="M537.1,660.7v20.2c0,6.7,3.3,10,10,10h127.4"/>
	<path pointer-events="none" class="st3" d="M543.1,671.6l-6-12l-6,12"/>
	<g>
		<text transform="matrix(1 0 0 1 585.5993 684.93)" class="st4 st8">&lt;&lt;Extend&gt;&gt;</text>
	</g>
	<path pointer-events="none" class="st3" d="M37.1,278.1h97.1c6.7,0,10,3.3,10,10v64.3"/>
</g>
</svg>
